HIERARCHY
ROOT pelvis
{
  OFFSET 0 100 0
  CHANNELS 6 Xposition Yposition Zposition Zrotation Xrotation Yrotation
  JOINT pelvis_right_femur
  {
    OFFSET -10.78128 -3.44521 -0.5502486
    CHANNELS 3 Zrotation Xrotation Yrotation
    JOINT right_femur_tibia
    {
      OFFSET -0.8047443 -44.0398 -0.1307829
      CHANNELS 3 Zrotation Xrotation Yrotation
      JOINT right_tibia_foot
      {
        OFFSET 3.006224 -47.83518 -5
        CHANNELS 3 Zrotation Xrotation Yrotation
        End Site
        {
          OFFSET 0 -5 15
        }
      }
    }
  }
  JOINT pelvis_left_femur
  {
    OFFSET 10.78128 -3.44521 -0.5502486
    CHANNELS 3 Zrotation Xrotation Yrotation
    JOINT left_femur_tibia
    {
      OFFSET 0.8047443 -44.0398 -0.1307829
      CHANNELS 3 Zrotation Xrotation Yrotation
      JOINT left_tibia_foot
      {
        OFFSET -4.370144 -48.10324 -4.275266
        CHANNELS 3 Zrotation Xrotation Yrotation
        End Site
        {
          OFFSET 0 -5 15
        }
      }
    }
  }
  JOINT pelvis_spine1
  {
    OFFSET 0 6.468898 -3.129235
    CHANNELS 3 Zrotation Xrotation Yrotation
    JOINT spine1
    {
      OFFSET 0 23.15396 4.99043
      CHANNELS 3 Zrotation Xrotation Yrotation
      JOINT spine2
      {
        OFFSET 0 20.79997 -5.064912
        CHANNELS 3 Zrotation Xrotation Yrotation
        JOINT neck
        {
          OFFSET 0 14.38658 9.616178
          CHANNELS 3 Zrotation Xrotation Yrotation
          End Site
          {
            OFFSET 0 20 0
          }
        }
      }
      JOINT right_manubrium
      {
        OFFSET -5.722621 16.35077 3.967754
        CHANNELS 3 Zrotation Xrotation Yrotation
        JOINT right_clavicle
        {
          OFFSET -13.16364 1.694482 -4.693211
          CHANNELS 3 Zrotation Xrotation Yrotation
          JOINT right_humerus
          {
            OFFSET -28.5034 -0.3100689 -2.792744
            CHANNELS 3 Zrotation Xrotation Yrotation
            JOINT right_radius
            {
              OFFSET -25.15693 0.02248979 -1.271978
              CHANNELS 3 Zrotation Xrotation Yrotation
              End Site
              {
                OFFSET -15 0 0
              }
            }
          }
        }
      }
      JOINT left_manubrium
      {
        OFFSET 5.722621 16.35077 3.967754
        CHANNELS 3 Zrotation Xrotation Yrotation
        JOINT left_clavicle
        {
          OFFSET 13.16364 1.694482 -4.693211
          CHANNELS 3 Zrotation Xrotation Yrotation
          JOINT left_humerus
          {
            OFFSET 29.39168 -1.063119 -2.237045
            CHANNELS 3 Zrotation Xrotation Yrotation
            JOINT left_radius
            {
              OFFSET 24.59957 -0.9528479 0.9047498
              CHANNELS 3 Zrotation Xrotation Yrotation
              End Site
              {
                OFFSET 15 -0 -0
              }
            }
          }
        }
      }
    }
  }
}
MOTION
Frames: 21
Frame Time: 0.0416666666667
0 103.5113 0 -0.02353578 -1.033348 0.1032311 4.880772 -15.54424 8.630864 -0 33.04556 -0 -6.745155 -14.05559 -3.226044 -6.023511 6.466738 -20.41523 -0 6.38907 -0 8.768554 -15.33222 26.2313 -2.239297 -3.591396 5.151798 2.14512 10.3612 -7.263355 2.012413 21.87976 5.53776 2.026794 -25.1062 9.619347 4.197309 -21.47156 11.3734 86.33286 31.38789 -17.44149 -0 0 17.78561 -8.731425 8.599535 4.501111 6.901 -20.2246 -0.9073464 -94.17253 21.37848 22.25067 0 0 -11.13858 14.05186 16.89413 -2.706269
0.2603773 102.9063 2.240717 -0.2887858 -0.3364576 0.2293929 5.422423 -18.13446 8.708266 -0 32.02314 -0 -6.59846 -13.71513 -3.016776 -5.890295 7.55245 -20.46091 -0 6.454319 -0 8.462887 -16.16835 25.88901 -2.226028 -3.277662 4.835724 2.360697 10.04088 -7.429944 1.898274 21.6718 5.929656 2.315592 -25.4185 9.792499 4.474719 -20.89947 11.35898 86.21775 32.17941 -17.93334 -0 0 17.27392 -8.331968 8.470191 4.337241 7.083501 -20.26176 -0.716634 -93.88174 21.85144 21.6419 0 0 -12.17112 14.01355 16.62763 -2.628161
0.536477 102.3558 4.672751 -0.617191 0.7610887 0.3826163 6.205904 -21.53953 8.887528 -0 30.41 -0 -5.998301 -12.44205 -2.421172 -5.697614 8.279883 -19.97585 -0 7.142633 -0 9.354407 -16.31177 25.67506 -2.30471 -3.175056 4.704631 2.77335 10.36862 -8.010714 1.630177 21.02731 6.4792 2.791924 -25.9228 9.882739 5.198912 -20.50561 11.78596 86.01789 33.73105 -18.77758 -0 0 16.6539 -8.375079 9.144424 4.276668 7.374806 -20.85969 -0.6182238 -92.85397 20.72846 20.50768 0 0 -13.89366 15.95475 15.53622 -5.028972
0.8241854 101.8192 7.296478 -0.8254941 1.581932 0.5584216 6.727991 -24.526 8.860131 -0 29.11722 -0 -5.576912 -11.17235 -1.91412 -5.643706 9.255488 -19.59031 -0 7.810605 -0 10.00675 -16.65207 25.42353 -2.431179 -3.005111 4.526453 3.092517 10.51812 -8.420796 1.428606 20.59333 6.977577 3.207629 -26.26492 9.99266 5.680627 -20.01887 12.04157 86.03027 34.92331 -19.55793 -0 0 15.82181 -8.382867 9.550195 4.254362 7.560701 -21.30361 -0.6184179 -91.8932 20.12144 19.37793 0 0 -15.76278 17.18687 14.60317 -6.499376
1.111791 101.2624 10.14516 -1.031549 2.086168 0.7579778 7.092318 -26.82549 8.519791 -0 27.64749 -0 -5.480682 -9.947941 -1.495639 -5.562289 10.14614 -19.14083 -0 8.646511 -0 9.899994 -17.18642 24.84247 -2.443535 -2.713473 4.273423 3.30211 10.46721 -8.620703 1.299322 20.36875 7.367506 3.50999 -26.49536 10.0999 5.780774 -19.51664 12.11384 86.22514 35.37681 -20.16093 -0 0 14.96496 -8.481618 9.676872 4.296306 7.709807 -21.58473 -0.6511785 -91.21495 19.96475 18.43666 0 0 -17.21942 17.67154 13.98455 -7.113248
1.396972 100.6776 13.22679 -1.21931 2.463365 0.9858287 7.330668 -28.72861 8.022359 -0 26.0831 -0 -5.564393 -8.845968 -1.147172 -5.492832 11.00406 -18.70293 -0 9.504455 -0 9.303288 -17.86309 23.9983 -2.403662 -2.366532 3.998593 3.455411 10.27002 -8.700633 1.204429 20.24573 7.687161 3.740452 -26.69223 10.18932 5.714249 -19.01514 12.07881 86.48758 35.49384 -20.66796 -0 0 14.12548 -8.567589 9.642392 4.389018 7.797164 -21.74207 -0.7054121 -90.72521 20.18468 17.69651 0 0 -18.48167 17.51533 13.58813 -6.952577
1.681327 100.0581 16.55408 -1.402175 2.747869 1.244496 7.478474 -30.25286 7.402414 -0 24.40885 -0 -5.796606 -7.789755 -0.8448102 -5.41058 11.74961 -18.22005 -0 10.47288 -0 8.339812 -18.54461 22.89951 -2.307034 -2.009557 3.727508 3.570805 10.01663 -8.713973 1.127329 20.17547 7.935599 3.907844 -26.87654 10.2392 5.535899 -18.55555 11.99644 86.80247 35.34682 -21.10957 -0 0 13.32775 -8.69461 9.547379 4.53698 7.83121 -21.84563 -0.7903359 -90.37084 20.57133 17.14055 0 0 -19.54079 16.96121 13.33972 -6.325849
1.968503 99.40332 20.14301 -1.577922 2.95851 1.534327 7.548381 -31.43888 6.682137 -0 22.65526 -0 -6.149478 -6.722743 -0.5733178 -5.313679 12.37441 -17.66435 -0 11.60568 -0 7.134732 -19.13939 21.58109 -2.163891 -1.674637 3.47417 3.658687 9.76359 -8.696548 1.057359 20.13348 8.118065 4.021741 -27.04939 10.23787 5.28452 -18.14889 11.90203 87.1718 35.00595 -21.51998 -0 0 12.55355 -8.890322 9.44981 4.73873 7.813028 -21.94463 -0.9194353 -90.08812 20.99506 16.71953 0 0 -20.45678 16.17685 13.17805 -5.432709
2.261381 98.71836 24.01985 -1.750173 3.076249 1.853772 7.553488 -32.2596 5.854802 -0 20.84508 -0 -6.632811 -5.58698 -0.316282 -5.188462 12.8593 -16.98716 -0 13.03346 -0 5.763379 -19.54413 20.06303 -1.963548 -1.388929 3.24309 3.715735 9.561283 -8.669596 0.9887845 20.11706 8.232224 4.081105 -27.19546 10.17609 4.952761 -17.80372 11.81645 87.6276 34.45834 -21.92755 -0 0 11.77136 -9.199921 9.384931 4.984824 7.750506 -22.09022 -1.104961 -89.82169 21.32403 16.37007 0 0 -21.25507 15.34223 13.06698 -4.496111
2.560836 98.01766 28.21963 -1.916868 3.069874 2.198646 7.503896 -32.65974 4.915357 -0 19.02854 -0 -7.260415 -4.363463 -0.06294511 -5.026586 13.19884 -16.1526 -0 14.89819 -0 4.294577 -19.66084 18.38078 -1.693513 -1.1807 3.037655 3.731046 9.447176 -8.645746 0.917604 20.13521 8.274943 4.081172 -27.28833 10.04722 4.522977 -17.52357 11.74947 88.20867 33.67914 -22.35966 -0 0 10.94402 -9.657473 9.3688 5.259113 7.648282 -22.32558 -1.357101 -89.51823 21.46075 16.02606 0 0 -21.97618 14.60495 12.99369 -3.693717
2.86453 97.32994 32.78343 -2.074826 2.897464 2.56051 7.422082 -32.54493 3.876546 -0 17.28223 -0 -8.04293 -3.0797 0.1875057 -4.81823 13.38416 -15.13814 -0 17.37904 -0 2.792026 -19.3837 16.59194 -1.335584 -1.083171 2.862947 3.688431 9.453221 -8.633668 0.8409457 20.20278 8.241518 4.01497 -27.29273 9.845928 3.973367 -17.31396 11.70479 88.95327 32.63571 -22.84111 -0 0 10.0446 -10.29021 9.408017 5.539172 7.508401 -22.68663 -1.68159 -89.13874 21.33276 15.63599 0 0 -22.65473 14.08486 12.96567 -3.167819
3.166698 96.70456 37.7503 -2.219105 2.519128 2.923358 7.35261 -31.80133 2.794162 -0 15.70812 -0 -8.960498 -1.820649 0.4164856 -4.555299 13.39326 -13.95135 -0 20.67866 -0 1.330799 -18.60984 14.79936 -0.8752279 -1.132087 2.73128 3.573579 9.607171 -8.642467 0.7575954 20.33035 8.129514 3.880659 -27.17021 9.570057 3.298664 -17.18527 11.68476 89.8767 31.32256 -23.38879 -0 0 9.07736 -11.11233 9.509017 5.80219 7.328312 -23.19147 -2.076814 -88.67459 20.90697 15.1881 0 0 -23.31201 13.84747 12.99797 -2.992512
3.459259 96.21625 43.1437 -2.344296 1.911912 3.259337 7.363845 -30.31939 1.780287 -0 14.40873 -0 -9.941007 -0.7198867 0.5810297 -4.233777 13.15913 -12.63989 -0 25.01863 -0 0.001763559 -17.25892 13.16174 -0.3126428 -1.353532 2.668818 3.383307 9.93388 -8.682999 0.6706547 20.51276 7.942512 3.690037 -26.89068 9.224981 2.527566 -17.15522 11.69485 90.94563 29.79273 -23.99927 -0 0 8.103036 -12.11991 9.687763 6.033447 7.101489 -23.82572 -2.528787 -88.16812 20.19976 14.73969 0 0 -23.92711 13.88377 13.09398 -3.1524
3.734484 95.96086 48.9513 -2.438553 1.081844 3.525697 7.517653 -28.01515 0.9809837 -0 13.4384 -0 -10.85807 0.06885986 0.6205622 -3.860816 12.51843 -11.29194 -0 30.58777 -0 -1.094281 -15.3142 11.88173 0.3185869 -1.738704 2.72265 3.132374 10.45138 -8.759409 0.5924659 20.72477 7.690877 3.473209 -26.44614 8.828021 1.729336 -17.24999 11.7456 92.05709 28.17784 -24.62606 -0 0 7.255833 -13.28583 9.970432 6.239108 6.817937 -24.52621 -3.010603 -87.72264 19.29149 14.43553 0 0 -24.40517 14.09007 13.22982 -3.521103
3.987308 96.03053 55.10097 -2.466007 0.04799687 3.667455 7.805519 -24.81495 0.4991429 -0 12.74253 -0 -11.57443 0.4136864 0.4787051 -3.458307 11.159 -10.00841 -0 37.3929 -0 -1.862737 -12.87311 11.16178 0.93555 -2.215438 2.960159 2.845584 11.1644 -8.846486 0.5497525 20.93826 7.381215 3.267419 -25.8497 8.404617 0.9839211 -17.50985 11.8503 93.04942 26.64778 -25.14678 -0 0 6.731227 -14.5753 10.37661 6.462811 6.464104 -25.18127 -3.49966 -87.4823 18.32678 14.48891 0 0 -24.56797 14.26699 13.36501 -3.861046
4.214146 96.46249 61.44255 -2.349177 -1.20234 3.631196 8.099869 -20.63419 0.3069116 -0 12.13297 -0 -12.01194 0.2417868 0.1245952 -3.049836 8.645827 -8.852231 -0 44.95522 -0 -2.220674 -10.1884 11.14682 1.409697 -2.642665 3.448439 2.532006 12.05872 -8.865343 0.583137 21.15396 6.994998 3.087226 -25.11232 7.972117 0.3167948 -18.00447 12.01868 93.75781 25.30134 -25.33647 -0 0 6.741726 -15.98718 10.8913 6.802652 6.02208 -25.66053 -4.01558 -87.57525 17.47985 15.12011 0 0 -24.21178 14.14695 13.48409 -3.846355
4.408836 97.18272 67.75598 -1.997455 -2.719009 3.391377 8.207345 -15.47603 0.2588461 -0 11.38081 -0 -12.19157 -0.440737 -0.4361937 -2.621009 4.646073 -7.817304 -0 51.97213 -0 -2.089774 -7.655693 11.86176 1.611824 -2.856972 4.204651 2.166019 13.08995 -8.694083 0.7320462 21.40096 6.479035 2.896023 -24.23309 7.526279 -0.3414682 -18.83742 12.24488 94.08793 24.08571 -24.89751 -0 0 7.467661 -17.55093 11.45563 7.397175 5.471793 -25.85773 -4.636358 -88.04317 16.88274 16.48497 0 0 -23.23861 13.47083 13.62593 -3.127901
4.564939 97.99494 73.8104 -1.416808 -4.472496 2.973596 8.037352 -9.673961 0.2448431 -0 10.43092 -0 -12.20684 -1.568337 -1.132462 -2.074074 -0.656217 -6.85708 -0 56.3937 -0 -1.441427 -5.67478 13.12947 1.504761 -2.771393 5.130793 1.714434 14.15159 -8.246018 0.9975517 21.67124 5.785259 2.615179 -23.24721 7.056814 -1.087616 -20.0889 12.49035 94.04906 22.88538 -23.60191 -0 0 9.022921 -19.18867 12.0082 8.326078 4.815176 -25.71719 -5.414016 -88.80445 16.55024 18.60719 0 0 -21.75818 12.16362 13.84208 -1.541152
4.691969 98.64737 79.46878 -0.807627 -6.217491 2.436291 7.72339 -3.910194 0.2950896 -0 9.474902 -0 -12.1292 -3.091127 -1.783068 -1.242852 -6.388309 -5.928465 -0 56.40916 -0 -0.4468227 -4.395989 14.5562 1.222813 -2.460416 6.006393 1.202667 15.06371 -7.576438 1.301622 21.86377 4.955057 2.1894 -22.27287 6.58247 -1.898313 -21.70848 12.69051 93.69055 21.71294 -21.4775 -0 0 11.42146 -20.61425 12.5634 9.48427 4.140532 -25.2533 -6.213798 -89.70831 16.34373 21.29679 0 0 -19.97131 10.55396 14.1205 0.5256583
4.828999 98.92943 84.76069 -0.4549403 -7.626457 1.816651 7.505804 1.278306 0.4569018 -0 8.691125 -0 -11.9137 -4.997107 -2.177291 -0.006773955 -11.52282 -4.983949 -0 51.72493 -0 0.5027205 -3.623777 15.74679 1.00347 -2.126082 6.620483 0.7267231 15.67851 -6.877854 1.520879 21.85473 4.12166 1.641802 -21.43449 6.143525 -2.618375 -23.5274 12.80554 93.02517 20.6503 -18.81252 -0 0 14.54443 -21.61202 13.2254 10.67065 3.620333 -24.57139 -6.753515 -90.64831 16.02264 24.17961 0 0 -17.91759 9.239364 14.41501 2.188156
5.034932 98.72988 89.85113 -0.4884685 -8.59042 1.120298 7.49593 5.798429 0.6897614 -0 8.176873 -0 -11.45828 -7.165589 -2.289181 1.575301 -15.44354 -3.986446 -0 43.57968 -0 1.159972 -3.051963 16.53431 1.003344 -1.977456 6.926144 0.369301 16.02057 -6.332098 1.604772 21.5921 3.36106 1.023999 -20.75297 5.748927 -3.138486 -25.43631 12.83948 92.13092 19.57752 -15.97152 -0 0 18.14765 -22.34082 14.10072 11.85661 3.315575 -23.82656 -6.932152 -91.57436 15.39138 26.98252 0 0 -15.59078 8.47617 14.72498 2.978725
